# xmcd
#
# Track frame offsets:
#	150
#	17547
#	31735
#	46204
#	58541
#	71241
#	88030
#	100877
#	116344
#	131281
#	145403
#	160288
#	174910
#	188802
#	203768
#	216356
#	228353
#	238962
#
# Disc length: 3376 seconds
#
# Revision: 0
# Processed by: cddbd v1.5.2PL0 Copyright (c) Steve Scherf et al.
# Submitted via: dBpowerAMP V4.0
#
DISCID=f50d2e12
DTITLE=Various Artist - 18 Corridos Famosos
DYEAR=2006
DGENRE=Country
TTITLE0=Valente Quintero
TTITLE1=Gabino Barrera
TTITLE2=Benito Canales
TTITLE3=Lucio Vazquez
TTITLE4=Matilde Alfaro
TTITLE5=Simon Blanco
TTITLE6=Arnulfo Gonzalez
TTITLE7=Felipe Angeles
TTITLE8=Ignacio Bernal
TTITLE9=Juan Charrasqueado
TTITLE10=Valentin De La Sierra
TTITLE11=Hnos. Banda - Benjamin Argumedo
TTITLE12=Hnos. Banda - Modesta Ayala
TTITLE13=Hnos. Banda - El Dia De San Juan
TTITLE14=Hnos. Banda - La Carcel De Cananea
TTITLE15=Hnos. Banda - Rosita Alvirez
TTITLE16=Hnos. Banda - Carabina 30-30
TTITLE17=El Hijo Desobediente
EXTD=
EXTT0=
EXTT1=
EXTT2=
EXTT3=
EXTT4=
EXTT5=
EXTT6=
EXTT7=
EXTT8=
EXTT9=
EXTT10=
EXTT11=
EXTT12=
EXTT13=
EXTT14=
EXTT15=
EXTT16=
EXTT17=
PLAYORDER=
